# xmcd
# 
# Track frame offsets:
#     150
#     32350
#     44980
#     116005
# 
# Disc length: 1769
# 
# Revision: 6
# Processed by: cddbd v1.5.2PL0 Copyright (c) Steve Scherf et al.
# Submitted via: BonkEnc v1.0
# 
DISCID=3106e704
DTITLE=Zorn, John - Elegy
DYEAR=1992
DGENRE=Avant-Garde - Contemporary Instrumental - Fusion - Modern Compositi
TTITLE0=Blue
TTITLE1=Yellow
TTITLE2=Pink
TTITLE3=Black
EXTD=
EXTT0=
EXTT1=
EXTT2=
EXTT3=
PLAYORDER=
